<svg width="42" height="48" viewBox="0 0 42 48" fill="none" xmlns="http://www.w3.org/2000/svg">
<path d="M20.4069 0.000114056C20.3195 0.00308544 20.2191 0.0350539 20.1641 0.112192L7.80785 14.8967C7.60224 15.1541 7.58835 15.2116 7.8639 15.2143L32.6137 15.1489C32.9538 15.1211 32.9553 15.1381 32.7351 14.85L20.5937 0.0655061C20.5686 0.0264171 20.4943 -0.00203484 20.4069 0.000114056ZM22.7792 1.31701L33.9213 14.8687C34.0705 15.0497 34.1069 15.06 34.3696 14.9341L40.2441 12.2443C40.6289 12.0706 40.5756 12.035 40.3188 11.8613L22.7792 1.31701ZM17.577 1.81199C17.5718 1.80093 17.4812 1.86865 17.2782 2.00813L1.10207 12.6552L6.1641 14.9528C6.42817 15.0398 6.50706 15.0445 6.67776 14.8313L17.3529 2.08285C17.5034 1.90876 17.5821 1.82305 17.577 1.81199ZM22.6951 7.21025C23.4101 7.21028 23.9826 7.45678 24.4042 7.94809C24.8257 8.43694 25.0636 9.1354 25.1234 10.0402C25.183 10.9425 25.0318 11.6409 24.6751 12.1322C24.3182 12.6211 23.7837 12.8607 23.0687 12.8607C22.3512 12.8607 21.781 12.6211 21.3595 12.1322C20.9379 11.6409 20.7001 10.9425 20.6404 10.0402C20.5806 9.1354 20.7319 8.43694 21.0887 7.94809C21.4454 7.45678 21.9776 7.21028 22.6951 7.21025ZM17.9973 7.26629C18.6491 7.26632 19.1378 7.40894 19.4543 7.69591C19.7731 7.98291 19.887 8.37819 19.8092 8.89137C19.7641 9.18811 19.6466 9.4648 19.4543 9.7226C19.2623 9.97798 18.8902 10.3288 18.3335 10.7593L17.0167 11.7773H19.4076L19.2582 12.8047H15.2982L15.4569 11.7773L17.7078 10.0215C17.9097 9.86095 18.0664 9.70772 18.1748 9.55449C18.2831 9.40126 18.3458 9.23423 18.3709 9.06883C18.4096 8.81346 18.361 8.60807 18.2121 8.45243C18.0655 8.29678 17.8429 8.21895 17.5583 8.21893C17.3394 8.21895 17.0951 8.27352 16.8205 8.36835C16.5462 8.4608 16.2487 8.59448 15.9239 8.7793L16.1014 7.58383C16.4334 7.47926 16.7557 7.40386 17.0727 7.35036C17.3901 7.29441 17.7006 7.26632 17.9973 7.26629ZM22.7605 8.17224C22.4589 8.17224 22.2545 8.31283 22.1441 8.59251C22.0335 8.86979 21.9963 9.3498 22.0413 10.0308C22.0868 10.7191 22.1833 11.1963 22.3308 11.4784C22.4784 11.7606 22.7017 11.9081 23.0033 11.9081C23.3025 11.9081 23.5095 11.7606 23.6197 11.4784C23.73 11.1963 23.7679 10.7191 23.7225 10.0308C23.6774 9.3498 23.5801 8.86979 23.4329 8.59251C23.288 8.31283 23.062 8.17224 22.7605 8.17224ZM9.33018 8.92873C9.45967 8.92873 9.55061 8.96116 9.59168 9.03148C9.67294 9.17135 9.57019 9.44406 9.29283 9.86269C9.0146 10.2828 8.69509 10.64 8.33086 10.9274C7.96566 11.214 7.56172 11.4297 7.12605 11.5718C6.84349 11.664 6.64853 11.6882 6.53768 11.6372C6.42582 11.5854 6.40004 11.4562 6.46296 11.2636C6.25248 11.4862 6.03263 11.6793 5.79984 11.8333C5.56708 11.9874 5.32993 12.107 5.08071 12.1882C4.70978 12.3092 4.48641 12.3004 4.42694 12.1602C4.36743 12.02 4.47412 11.7511 4.73513 11.357C4.99423 10.9657 5.28396 10.6339 5.61306 10.367C5.94017 10.1007 6.29558 9.90952 6.66844 9.78791C6.91765 9.70662 7.09154 9.68522 7.19145 9.73187C7.29229 9.77706 7.31572 9.88865 7.26616 10.0587C7.49389 9.81244 7.73462 9.60497 7.99466 9.43301C8.25368 9.26023 8.52459 9.12359 8.80718 9.03139C9.02502 8.96035 9.20072 8.92903 9.33018 8.92867V8.92873ZM34.2575 9.15288C34.4798 9.33892 34.6852 9.53133 34.8739 9.71325C35.0639 9.89517 35.2365 10.0707 35.3875 10.2456C35.7193 10.63 35.8958 10.9288 35.9106 11.1422C35.9267 11.357 35.7821 11.4671 35.4809 11.4691C35.3068 11.4691 35.1032 11.4183 34.8739 11.329C34.646 11.2397 34.2839 11.0566 33.7811 10.7686L32.5857 10.0868L33.8092 11.4971L33.2021 11.5064L31.1847 9.1715L31.7918 9.16223L33.8372 10.3297C34.0218 10.4337 34.1802 10.5136 34.3135 10.5632C34.4468 10.6128 34.562 10.6385 34.659 10.6379C34.8089 10.6379 34.8797 10.5815 34.8832 10.4791C34.888 10.3781 34.8226 10.2453 34.6777 10.0775C34.5663 9.94846 34.4176 9.80097 34.2294 9.64789C34.0427 9.49481 33.8165 9.33647 33.557 9.16223L34.2575 9.15296V9.15288ZM8.49899 9.77864C8.42969 9.78521 8.33609 9.79957 8.22813 9.83468C8.01032 9.90573 7.8174 10.0048 7.64907 10.1242C7.47881 10.2442 7.34044 10.3807 7.23814 10.5351C7.13488 10.691 7.11242 10.7974 7.17277 10.8434C7.23308 10.8893 7.37716 10.8764 7.59304 10.806C7.8089 10.7356 8.00086 10.638 8.17208 10.5165C8.34137 10.3956 8.47977 10.2521 8.58302 10.0962C8.68534 9.94174 8.70773 9.84248 8.64841 9.79732C8.61775 9.7752 8.56827 9.77222 8.49899 9.77879V9.77864ZM6.4723 10.4884C6.41679 10.4926 6.34481 10.5067 6.25749 10.5351C6.08283 10.5921 5.92958 10.6772 5.79053 10.778C5.64946 10.8794 5.53098 10.9936 5.44494 11.1235C5.35698 11.2564 5.33317 11.3436 5.37957 11.385C5.42691 11.4251 5.54308 11.4134 5.71581 11.357C5.89046 11.3 6.04171 11.2249 6.18278 11.1235C6.32477 11.0206 6.44037 10.9014 6.52831 10.7685C6.61437 10.6386 6.64106 10.5564 6.59371 10.5164C6.5701 10.4964 6.52778 10.4841 6.4723 10.4883V10.4884ZM41.1033 12.8794C41.0531 12.883 40.9738 12.9119 40.8512 12.9634L34.8178 15.7186C34.6036 15.8158 34.6171 15.9469 34.6964 16.1109L41.7104 33.9027L41.2061 13.1782C41.1906 12.9516 41.1873 12.8734 41.1033 12.8794ZM0.64442 13.4304L0 33.5945L5.93995 16.1482C6.02769 15.8906 6.02563 15.8775 5.84655 15.7933L0.64442 13.4304ZM32.9406 16.0455L7.63038 16.1109C7.26867 16.1055 7.28365 16.1058 7.46229 16.4004L20.3135 38.0775C20.5305 38.4083 20.5073 38.3979 20.7338 38.059L33.0807 16.3445C33.1888 16.172 33.2661 16.0513 32.9406 16.0456V16.0455ZM33.9493 16.6152C33.9259 16.6251 33.9005 16.713 33.8278 16.8487L21.3969 38.7219C21.2613 38.9528 21.229 39.0356 21.5557 38.9834L41.2901 36.2656C41.6031 36.1942 41.5936 36.0822 41.4863 35.7706L34.0426 16.858C33.9934 16.6769 33.9727 16.6054 33.9493 16.6152ZM6.65908 16.8207C6.63488 16.838 6.61311 16.9302 6.56568 17.0635L0.2615 35.6212C0.154152 36.0154 0.142012 36.1635 0.541683 36.2376L19.3982 38.9647C19.7548 39.0183 19.7092 38.8387 19.6224 38.6659L6.78983 17.0168C6.70906 16.8532 6.68317 16.8033 6.65908 16.8207ZM40.9726 17.0635L41.0099 17.8387L40.3749 18.2496L40.5243 21.0608L41.1594 20.4351L41.2061 21.2009L40.5617 21.8173L39.8799 22.2563L39.6931 18.6792L39.3942 18.866L39.4035 19.0902C39.2636 19.0707 39.1273 19.0794 38.9925 19.1087C38.8566 19.1409 38.7285 19.1953 38.6003 19.2768C38.4098 19.3978 38.2662 19.5394 38.1706 19.7064C38.0739 19.8743 38.03 20.0558 38.0399 20.2481C38.05 20.4463 38.1076 20.5591 38.2173 20.5937C38.326 20.631 38.4814 20.5907 38.6843 20.4629L38.9739 20.2762L39.0112 21.0046L38.7123 21.1914C38.5318 21.3061 38.3946 21.4401 38.3107 21.5837C38.227 21.7292 38.1894 21.8887 38.1987 22.0694C38.2073 22.2364 38.2575 22.3408 38.3481 22.3775C38.4387 22.4143 38.5648 22.3838 38.7216 22.2841C38.8374 22.2106 38.9511 22.1106 39.0672 21.9946C39.1834 21.8787 39.2999 21.747 39.4128 21.593L39.4501 22.4149C39.3115 22.5673 39.1771 22.6968 39.0392 22.8165C38.9014 22.9362 38.7627 23.0393 38.6283 23.1247C38.266 23.3549 37.9953 23.4401 37.8064 23.3675C37.6164 23.2977 37.5081 23.0774 37.4888 22.7044C37.4758 22.4499 37.5047 22.2124 37.5822 21.9946C37.6598 21.7788 37.7818 21.5791 37.9465 21.4062C37.7546 21.4499 37.605 21.4116 37.4982 21.2848C37.3902 21.1608 37.3356 20.9579 37.3207 20.6684C37.2986 20.2371 37.3822 19.8421 37.5822 19.4823C37.7823 19.1244 38.0917 18.8155 38.4975 18.5577C38.6407 18.4667 38.7808 18.3884 38.9271 18.3335C38.957 18.3219 38.9903 18.3156 39.0205 18.3054L39.0297 18.2962L40.9724 17.0634L40.9726 17.0635ZM1.17678 18.5765C1.272 18.5702 1.37184 18.6013 1.48498 18.6699C1.73439 18.821 1.91685 19.1043 2.02666 19.5198C2.03357 19.5461 2.03917 19.5768 2.04519 19.6038L2.08254 19.1088L3.42745 19.9214L3.37141 20.6032L2.93247 20.3417L2.73632 22.7886L3.19397 22.882L3.14726 23.5451L2.68027 23.4611L2.21329 23.1716L2.46548 20.0522L2.08254 19.828C2.13997 20.1858 2.15873 20.5978 2.1199 21.0702C2.06832 21.6978 1.94452 22.135 1.75568 22.3964C1.56585 22.6589 1.33374 22.7052 1.05519 22.5365C0.966947 22.483 0.883948 22.4178 0.803048 22.3403C0.722136 22.2628 0.63717 22.1731 0.560202 22.0695L0.616255 21.369C0.691378 21.4947 0.771331 21.598 0.840397 21.6772C0.909304 21.7582 0.977312 21.8225 1.04587 21.864C1.19327 21.9533 1.31443 21.9397 1.41011 21.8267C1.50563 21.7154 1.56631 21.5022 1.60625 21.1916C1.54283 21.2404 1.47943 21.2655 1.41011 21.2663C1.34061 21.2693 1.26395 21.248 1.18595 21.2009C0.989694 21.082 0.848287 20.8751 0.747009 20.5752C0.644818 20.2747 0.60464 19.9346 0.634924 19.5665C0.668377 19.1594 0.760335 18.8717 0.915107 18.7073C0.992437 18.6259 1.08137 18.5829 1.17662 18.5765H1.17678ZM1.31684 19.2583C1.28203 19.266 1.24944 19.2908 1.22348 19.333C1.17055 19.4185 1.13901 19.5684 1.12074 19.7906C1.1025 20.0128 1.10492 20.1956 1.13927 20.3323C1.17292 20.4702 1.23865 20.5689 1.32608 20.6218C1.41261 20.6743 1.4786 20.6514 1.53154 20.5658C1.58346 20.4815 1.61601 20.3304 1.63426 20.1082C1.6525 19.886 1.64921 19.7044 1.61573 19.5665C1.58109 19.4298 1.52484 19.3387 1.43829 19.2863C1.39457 19.2597 1.35171 19.2504 1.31685 19.2582L1.31684 19.2583ZM16.1481 20.6405H17.4743V21.6305H19.8932V22.8353L17.7078 26.0855H16.1481V22.6485H15.3729V21.6305H16.1481V20.6405ZM20.7431 20.6405H24.5443V21.6118H23.3115V25.1329L24.5817 24.8714V25.824L23.3115 26.0855H21.9759V21.6118H20.7431V20.6405ZM17.4743 22.6485V24.9367L19.0153 22.6485H17.4743ZM8.08805 26.7673L8.96597 27.9627L8.55502 28.2336C8.61842 28.2479 8.67711 28.2587 8.74181 28.2803C9.25757 28.4542 9.73211 28.8389 10.1614 29.4197C10.6346 30.0599 10.8255 30.6649 10.7311 31.2503C10.6334 31.8347 10.254 32.3427 9.60105 32.7726C8.93187 33.2132 8.25846 33.3602 7.57437 33.2022C6.88685 33.0433 6.28163 32.6004 5.75316 31.8854C5.58568 31.6587 5.43364 31.436 5.30486 31.2036C5.17605 30.9711 5.06523 30.7315 4.96864 30.4844L5.71581 29.9894C5.7889 30.252 5.87867 30.4894 5.97731 30.6992C6.0741 30.9102 6.18343 31.1023 6.31353 31.2783C6.59321 31.6567 6.89906 31.8912 7.2288 31.9881C7.55672 32.0862 7.89946 32.046 8.26547 31.8573C8.06955 31.7705 7.89241 31.6526 7.72379 31.5118C7.55336 31.3721 7.39546 31.1983 7.24749 30.9981C6.8751 30.4943 6.69107 30.0087 6.70579 29.5411C6.7189 29.0714 6.92039 28.7068 7.31286 28.4484C7.42138 28.377 7.53535 28.3231 7.64907 28.2803L7.04202 27.4584L8.08805 26.7673ZM31.9226 28.4951L32.9406 29.2796L34.5657 33.0902L33.7531 34.295L30.8205 32.0535L30.4189 32.6512L29.5503 31.9881L29.9613 31.381L29.1114 30.7366L29.8119 29.7092L30.6524 30.363L31.9226 28.4951ZM8.7885 29.4384C8.63028 29.4488 8.46187 29.5175 8.28416 29.6345C8.04725 29.7905 7.91718 29.9586 7.88258 30.1482C7.8445 30.3368 7.90349 30.5495 8.06936 30.774C8.2336 30.9962 8.41809 31.1233 8.62039 31.1569C8.81925 31.1895 9.03724 31.1261 9.27415 30.9701C9.5111 30.8141 9.64705 30.645 9.6851 30.4564C9.71974 30.2668 9.66239 30.0529 9.49832 29.8306C9.33244 29.6063 9.14614 29.4803 8.94729 29.4477C8.89668 29.4394 8.84125 29.4349 8.7885 29.4385V29.4384ZM32.3242 29.84L31.521 31.0261L33.4636 32.5204L32.3242 29.84ZM1.75583 37.321L20.2575 47.8186C20.497 47.9638 20.553 47.9109 20.519 47.6599L20.1267 40.3003C20.116 40.0628 20.0839 39.9661 19.8372 39.9267L1.75583 37.321ZM40.0106 37.3395L21.2288 39.9359C20.981 39.9724 21.0257 40.0941 21.0233 40.2721L21.4249 47.7625C21.4456 47.9897 21.4389 48.0712 21.7144 47.9306L40.0106 37.3395ZM28.2521 40.571L29.6251 42.0933L30.6991 41.4583L30.998 41.7945L28.1774 43.4662L27.7198 43.7371L24.8992 45.4089L24.6004 45.082L25.6744 44.4469L24.5817 43.2514L23.573 43.9893L23.2741 43.6624L24.2828 42.9339L25.4316 42.2521L26.8138 43.7745L27.4209 43.4102L27.8785 43.1394L28.4856 42.7751L27.4022 41.5797L26.3842 42.3175L26.0947 41.9906L27.1034 41.2528L28.2521 40.571ZM15.9052 40.7951C16.2686 40.8116 16.5968 40.9372 16.9046 41.1687C17.2463 41.4257 17.391 41.7029 17.3342 42.0093C17.2774 42.3157 17.0237 42.622 16.5777 42.9246C16.3124 43.1045 16.0382 43.2275 15.7652 43.3075L16.0827 43.5503L15.3635 44.036L14.7285 43.5596L14.962 43.4009C14.5642 43.3748 14.2049 43.2447 13.8786 42.9993C13.7557 42.9069 13.6442 42.817 13.5517 42.7191C13.4579 42.622 13.3781 42.5179 13.3088 42.4109L13.8225 42.0653C13.8769 42.1824 13.9383 42.2811 14.0093 42.3735C14.0816 42.4651 14.1655 42.5535 14.2615 42.6257C14.4628 42.7771 14.6852 42.8545 14.9152 42.8592C15.1465 42.863 15.3816 42.7874 15.6344 42.6444C15.4929 42.6266 15.3632 42.5977 15.2421 42.551C15.121 42.5042 15.0112 42.4434 14.9059 42.3642C14.6379 42.1626 14.5045 41.937 14.5043 41.7011C14.5072 41.4653 14.6451 41.2585 14.9152 41.0753C15.2138 40.8728 15.543 40.7797 15.9052 40.7951ZM16.064 41.3555C15.9225 41.366 15.7768 41.4237 15.6157 41.533C15.4534 41.6431 15.3576 41.7501 15.3355 41.8505C15.3146 41.95 15.3668 42.0418 15.485 42.1307C15.6032 42.2196 15.7276 42.2619 15.8679 42.2521C16.0093 42.2414 16.1632 42.1754 16.3255 42.0653C16.4866 41.9561 16.5743 41.8575 16.5964 41.7571C16.6185 41.6568 16.5746 41.5565 16.4563 41.4676C16.338 41.3787 16.2055 41.3449 16.064 41.3555Z" fill="#E5E5E5"/>
</svg>
