<svg width="50" height="58" fill="none" xmlns="http://www.w3.org/2000/svg"><path fill-rule="evenodd" clip-rule="evenodd" d="M24.463 0c-.105.004-.226.042-.291.136L9.36 18c-.247.311-.264.38.067.384l29.668-.08.062-.004c.162-.013.245-.02.263-.057.018-.04-.038-.114-.155-.268l-.024-.031L24.686.079c-.03-.047-.119-.081-.223-.079zm2.843 1.591l13.357 16.375c.179.219.222.232.537.08l7.042-3.25c.461-.21.398-.253.09-.463L27.306 1.59zm-6.438.727h-.002l-.154.108-19.39 12.866 6.067 2.776c.317.105.411.11.616-.147L20.802 2.517l.105-.122c.111-.13.168-.195.163-.206-.004-.01-.067.034-.202.129zm28.404 13.245c-.06.004-.155.039-.302.101l-7.232 3.33c-.257.117-.241.275-.146.473L50 40.966l-.605-25.042v-.02c-.018-.259-.025-.348-.123-.341zm-48.5.665L0 40.593l7.12-21.08c.106-.312.103-.328-.112-.43L.772 16.229zm38.715 3.16l-30.34.08c-.417-.007-.417-.007-.226.308l.024.041L24.351 46.01l.026.041c.11.168.164.252.218.252.053 0 .106-.08.21-.24l.05-.075 14.8-26.238.002-.004c.129-.206.218-.35-.17-.358zm1.15.793c-.021.046-.048.107-.086.178l-14.902 26.43c-.162.279-.2.379.19.316l23.657-3.284c.375-.086.364-.222.235-.598L40.808 20.37c-.059-.219-.084-.305-.112-.293-.015.006-.032.043-.06.104zm-32.654.144c-.02.014-.039.072-.067.158l-.045.135L.313 43.042c-.128.477-.143.656.336.745l22.604 3.295c.428.065.373-.152.27-.36L8.138 20.561c-.097-.198-.128-.258-.156-.237zM2.105 45.096l22.178 12.685c.288.175.355.111.314-.192l-.47-8.893c-.013-.287-.052-.404-.347-.451L2.105 45.096zm45.857.023l-22.514 3.137c-.255.038-.252.151-.247.318v.088l.482 9.051.003.036c.022.247.029.33.344.167L47.962 45.12z" fill="#F4F4F4"/></svg>