<svg width="250" height="250" viewBox="0 0 250 250" fill="none" xmlns="http://www.w3.org/2000/svg">
<g clip-path="url(#clip0)">
<g opacity="0.05">
<path d="M117.046 121.208L111.87 117.972C111.367 117.659 110.683 117.837 110.437 118.376C109.634 120.135 109.158 122.025 109.034 123.955C108.997 124.523 109.474 125 110.043 125H116.114C116.611 125 116.994 124.609 117.052 124.115C117.12 123.532 117.254 122.969 117.442 122.431C117.602 121.972 117.457 121.465 117.046 121.208ZM128.939 109.5C127.679 109.176 126.361 109 125 109C123.639 109 122.321 109.176 121.061 109.5C120.488 109.647 120.191 110.287 120.411 110.837L122.753 117.339C122.823 117.532 122.951 117.7 123.119 117.818C123.287 117.936 123.488 118 123.694 118H126.306C126.728 118 127.104 117.736 127.247 117.339L129.589 110.837C129.809 110.287 129.512 109.647 128.939 109.5V109.5ZM116 127H110C109.447 127 109 127.447 109 128V132C109 132.553 109.447 133 110 133H116C116.553 133 117 132.553 117 132V128C117 127.447 116.553 127 116 127ZM116 135H110C109.447 135 109 135.447 109 136V140C109 140.553 109.447 141 110 141H116C116.553 141 117 140.553 117 140V136C117 135.447 116.553 135 116 135ZM120.832 117.271L118.562 111.596C118.341 111.044 117.679 110.784 117.161 111.076C115.453 112.041 113.936 113.309 112.685 114.819C112.306 115.277 112.444 115.974 112.949 116.289L118.132 119.529C118.539 119.783 119.048 119.692 119.389 119.354C119.713 119.032 120.063 118.739 120.438 118.476C120.831 118.201 121.01 117.716 120.832 117.271V117.271ZM133.886 125H139.957C140.526 125 141.003 124.523 140.966 123.955C140.842 122.025 140.367 120.135 139.563 118.376C139.317 117.837 138.632 117.659 138.13 117.972L132.954 121.208C132.542 121.465 132.398 121.972 132.558 122.431C132.746 122.969 132.88 123.532 132.948 124.115C133.006 124.609 133.389 125 133.886 125V125ZM137.314 114.819C136.063 113.309 134.546 112.041 132.839 111.076C132.321 110.784 131.659 111.044 131.438 111.596L129.167 117.271C128.989 117.716 129.169 118.201 129.561 118.476C129.936 118.738 130.287 119.032 130.611 119.354C130.951 119.692 131.461 119.782 131.868 119.528L137.051 116.289C137.555 115.974 137.694 115.277 137.314 114.819V114.819ZM140 127H134C133.447 127 133 127.447 133 128V132C133 132.553 133.447 133 134 133H140C140.553 133 141 132.553 141 132V128C141 127.447 140.553 127 140 127ZM140 135H134C133.447 135 133 135.447 133 136V140C133 140.553 133.447 141 134 141H140C140.553 141 141 140.553 141 140V136C141 135.447 140.553 135 140 135ZM124 120.101V138.5C124 138.776 124.224 139 124.5 139H125.5C125.776 139 126 138.776 126 138.5V120.101C125.673 120.046 125.343 120 125 120C124.657 120 124.327 120.046 124 120.101ZM120 122.696V138.5C120 138.776 120.224 139 120.5 139H121.5C121.776 139 122 138.776 122 138.5V120.835C121.201 121.301 120.51 121.927 120 122.696V122.696ZM128 120.835V138.5C128 138.776 128.224 139 128.5 139H129.5C129.776 139 130 138.776 130 138.5V122.696C129.49 121.927 128.799 121.301 128 120.835Z" fill="#F4F4F4"/>
<path d="M14 131.4V110.6C14 109.6 13.4 109 12.4 109H-8C-11.4 109 -14 111.6 -14 115V135C-14 138.4 -11.4 141 -8 141H12.4C13.2 141 14 140.4 14 139.4V138.4C14 138 13.8 137.6 13.4 137.2C13.2 136.2 13.2 133.4 13.4 132.6C13.8 132.4 14 132 14 131.4V131.4ZM3 119L4.66625 122.333L8 124L4.66625 125.667L3 129L1.33375 125.667L-2 124L1.33375 122.333L3 119ZM-4 115L-3 113L-2 115L0 116L-2 117L-3 119L-4 117L-6 116L-4 115ZM9.8 137H-8C-9.2 137 -10 136.2 -10 135C-10 133.8 -9 133 -8 133H9.8V137Z" fill="#F4F4F4"/>
<path d="M264 131.4V110.6C264 109.6 263.4 109 262.4 109H242C238.6 109 236 111.6 236 115V135C236 138.4 238.6 141 242 141H262.4C263.2 141 264 140.4 264 139.4V138.4C264 138 263.8 137.6 263.4 137.2C263.2 136.2 263.2 133.4 263.4 132.6C263.8 132.4 264 132 264 131.4V131.4ZM253 119L254.666 122.333L258 124L254.666 125.667L253 129L251.334 125.667L248 124L251.334 122.333L253 119ZM246 115L247 113L248 115L250 116L248 117L247 119L246 117L244 116L246 115ZM259.8 137H242C240.8 137 240 136.2 240 135C240 133.8 241 133 242 133H259.8V137Z" fill="#F4F4F4"/>
<path d="M45.5007 189C46.6051 189 47.5001 188.215 47.5001 187.246V173L43.5607 186.821C43.2451 187.928 44.2001 189 45.5007 189ZM79.4395 186.821L75.5001 173V187.246C75.5001 188.215 76.3951 189 77.4995 189C78.8001 189 79.7551 187.928 79.4395 186.821ZM73.5001 186.176C73.5001 178.647 61.5001 173 61.5001 173C61.5001 173 49.5001 178.647 49.5001 186.176C49.5001 191.349 48.0713 195.295 47.5545 197.471C47.3401 198.372 47.7788 199.306 48.5745 199.673L59.5001 205V189L53.5001 187V185H69.5001V187L63.5001 189V205L74.4263 199.673C75.222 199.306 75.6607 198.372 75.4463 197.471C74.9288 195.295 73.5001 191.349 73.5001 186.176V186.176Z" fill="#F4F4F4"/>
<path d="M188.517 185C184.099 185 180.517 188.582 180.517 193V205H196.517V193C196.517 188.582 192.936 185 188.517 185ZM206.103 201.802C202.498 196.992 202.498 193 202.498 193H202.502V189C202.502 183.748 199.604 181.309 196.178 177.581L198.663 175.097C199.437 174.323 198.889 173 197.794 173H188.475C182.5 173 174.502 179.841 174.502 189V193C174.502 193 174.502 196.992 170.898 201.802C170.618 202.175 170.496 202.593 170.5 203C170.512 204.033 171.341 205 172.521 205H178.517V193C178.517 187.486 183.003 183 188.517 183C194.031 183 198.517 187.486 198.517 193V205H204.479C205.659 205 206.488 204.033 206.5 203C206.504 202.593 206.382 202.175 206.103 201.802Z" fill="#F4F4F4"/>
<path d="M169.645 60.9862L180.5 58.9975L174.795 63.2906C174.165 63.9206 174.611 64.9975 175.502 64.9975H189.421C188.831 63.3475 188.5 61.5931 188.5 59.7863V57.1444L181.017 51.6694C179.528 50.6769 177.561 50.7938 176.201 51.9563L168.863 59.2275C168.089 59.8731 168.647 61.1287 169.645 60.9862V60.9862ZM204.449 63.1175L198.158 59.9731C197.66 59.724 197.241 59.3412 196.948 58.8674C196.655 58.3936 196.5 57.8476 196.5 57.2906V54.9975H200.5L202.256 56.4119C202.631 56.7869 203.139 56.9975 203.67 56.9975H205.606C205.977 56.9975 206.341 56.894 206.657 56.6988C206.973 56.5035 207.228 56.2241 207.394 55.8919L208.289 54.1031C208.455 53.7709 208.525 53.399 208.492 53.0291C208.458 52.6592 208.323 52.3059 208.1 52.0087L203.442 45.7975C203.064 45.2937 202.471 45 201.842 45H187.001C186.556 45 186.332 45.5356 186.647 45.8506L190.5 48.9975L186.776 50.55C186.407 50.7344 186.407 51.26 186.776 51.4444L190.5 52.9975V59.7863C190.5 64.2913 192.752 68.4981 196.5 70.9975C184.276 71.4231 174.965 73.5606 169.369 74.8044C168.861 74.9169 168.5 75.3675 168.5 75.8875C168.5 76.5 168.997 77 169.61 77H200.802C204.758 77.0006 208.278 74.0275 208.489 70.0775C208.647 67.1225 207.069 64.4275 204.449 63.1175ZM199.074 49.1406L201.927 49.8538C201.755 50.5356 201.147 51.0344 200.419 50.995C199.609 50.9506 198.803 50.2119 199.074 49.1406V49.1406Z" fill="#F4F4F4"/>
<path d="M134.671 236.027L127 237.306V235C127 234.447 126.553 234 126 234H124C123.447 234 123 234.447 123 235V237.306L115.329 236.027C114.11 235.824 113 236.764 113 238.001V249.999C113 251.235 114.11 252.175 115.329 251.972L125 250.361L134.671 251.972C135.891 252.176 137 251.236 137 250V238.001C137 236.764 135.89 235.824 134.671 236.027V236.027ZM123 252.721V265C123 265.553 123.447 266 124 266H126C126.553 266 127 265.553 127 265V252.721L125 252.388L123 252.721Z" fill="#F4F4F4"/>
<path d="M134.671 -13.9725L127 -12.6937V-15C127 -15.5525 126.553 -16 126 -16H124C123.447 -16 123 -15.5525 123 -15V-12.6937L115.329 -13.9725C114.11 -14.1756 113 -13.2356 113 -11.9994V-0.000624657C113 1.235 114.11 2.175 115.329 1.97187L125 0.360624L134.671 1.9725C135.891 2.17562 137 1.23563 137 0V-11.9994C137 -13.2356 135.89 -14.1756 134.671 -13.9725V-13.9725ZM123 2.72125V15C123 15.5525 123.447 16 124 16H126C126.553 16 127 15.5525 127 15V2.72125L125 2.38812L123 2.72125Z" fill="#F4F4F4"/>
<path d="M243.111 251.939L245.94 249.111L240.278 243.45C242.015 242.505 243.968 242 246 242C248.001 242 249.928 242.487 251.645 243.404L254.558 240.491C252.021 238.877 249.081 238 246 238C242.888 238 239.919 238.892 237.365 240.537L237.121 240.293C236.73 239.903 236.097 239.903 235.707 240.293L234.293 241.707C233.902 242.097 233.902 242.731 234.293 243.121L243.111 251.939ZM259.508 245.399L256.595 248.312C257.513 250.029 257.999 251.956 257.999 253.958C257.999 255.99 257.494 257.943 256.549 259.68L250.888 254.018L248.06 256.847L256.919 265.707C257.31 266.098 257.943 266.098 258.334 265.707L259.748 264.293C260.139 263.902 260.139 263.269 259.748 262.878L259.463 262.593C261.108 260.039 261.999 257.069 261.999 253.958C261.999 250.877 261.122 247.936 259.508 245.399ZM264.826 234.019L256.789 235.627C256.021 235.781 255.734 236.728 256.288 237.283L258.442 239.437L242.777 255.101L239.671 254.065C239.445 253.99 239.202 253.979 238.97 254.034C238.737 254.089 238.525 254.207 238.356 254.375L234.377 258.355C233.702 259.03 233.973 260.18 234.879 260.483L238.358 261.642L239.517 265.12C239.819 266.026 240.969 266.298 241.645 265.623L245.624 261.643C245.793 261.475 245.911 261.262 245.966 261.03C246.021 260.798 246.01 260.555 245.935 260.328L244.899 257.222L260.564 241.557L262.718 243.712C263.272 244.266 264.22 243.979 264.374 243.211L265.981 235.174C266.117 234.488 265.512 233.883 264.826 234.019Z" fill="#F4F4F4"/>
<path d="M-6.88907 251.939L-4.06038 249.111L-9.72152 243.45C-7.9853 242.505 -6.03221 242 -4.00038 242C-1.99854 242 -0.0716996 242.487 1.64514 243.404L4.55822 240.491C2.02139 238.877 -0.919183 238 -4.00038 238C-7.11157 238 -10.0809 238.892 -12.6352 240.537L-12.879 240.293C-13.2696 239.903 -13.9027 239.903 -14.2933 240.293L-15.707 241.707C-16.0977 242.097 -16.0977 242.731 -15.707 243.121L-6.88907 251.939ZM9.50813 245.399L6.59505 248.312C7.51254 250.029 7.9994 251.956 7.9994 253.958C7.9994 255.99 7.49441 257.943 6.54943 259.68L0.888284 254.018L-1.94041 256.847L6.91942 265.707C7.31004 266.098 7.94315 266.098 8.33377 265.707L9.74812 264.293C10.1387 263.902 10.1387 263.269 9.74812 262.878L9.4625 262.593C11.1081 260.039 11.9993 257.069 11.9993 253.958C11.9993 250.877 11.1225 247.936 9.50813 245.399ZM14.8255 234.019L6.7888 235.627C6.02069 235.781 5.73382 236.728 6.28756 237.283L8.44189 239.437L-7.22282 255.101L-10.329 254.065C-10.5554 253.99 -10.7983 253.979 -11.0305 254.034C-11.2627 254.089 -11.4751 254.207 -11.644 254.375L-15.6233 258.355C-16.2983 259.03 -16.027 260.18 -15.1208 260.483L-11.6421 261.642L-10.4828 265.12C-10.1809 266.026 -9.03091 266.298 -8.3553 265.623L-4.37599 261.643C-4.20722 261.475 -4.08876 261.262 -4.0339 261.03C-3.97903 260.798 -3.98993 260.555 -4.06538 260.328L-5.10098 257.222L10.5637 241.557L12.7181 243.712C13.2718 244.266 14.2199 243.979 14.3737 243.211L15.9811 235.174C16.1168 234.488 15.5118 233.883 14.8255 234.019Z" fill="#F4F4F4"/>
<path d="M-6.88907 1.93916L-4.06038 -0.888909L-9.72152 -6.55006C-7.9853 -7.49504 -6.03221 -8.00003 -4.00038 -8.00003C-1.99854 -8.00003 -0.0716996 -7.51316 1.64514 -6.59568L4.55822 -9.50875C2.02139 -11.1231 -0.919183 -12 -4.00038 -12C-7.11157 -12 -10.0809 -11.1081 -12.6352 -9.46313L-12.879 -9.70687C-13.2696 -10.0975 -13.9027 -10.0975 -14.2933 -9.70687L-15.707 -8.29315C-16.0977 -7.90253 -16.0977 -7.26942 -15.707 -6.8788L-6.88907 1.93916ZM9.50813 -4.60072L6.59505 -1.68764C7.51254 0.0291989 7.9994 1.95604 7.9994 3.95788C7.9994 5.98971 7.49441 7.94343 6.54943 9.67965L0.888284 4.0185L-1.94041 6.8472L6.91942 15.707C7.31004 16.0977 7.94315 16.0977 8.33377 15.707L9.74812 14.2927C10.1387 13.9021 10.1387 13.269 9.74812 12.8783L9.4625 12.5927C11.1081 10.039 11.9993 7.06907 11.9993 3.95788C11.9993 0.877308 11.1225 -2.06389 9.50813 -4.60072ZM14.8255 -15.9805L6.7888 -14.373C6.02069 -14.2193 5.73382 -13.2718 6.28756 -12.7174L8.44189 -10.5631L-7.22282 5.10098L-10.329 4.06537C-10.5554 3.98999 -10.7983 3.97905 -11.0305 4.0338C-11.2627 4.08854 -11.4751 4.20681 -11.644 4.37537L-15.6233 8.3553C-16.2983 9.03028 -16.027 10.1803 -15.1208 10.4828L-11.6421 11.6421L-10.4828 15.1202C-10.1809 16.0264 -9.03091 16.2977 -8.3553 15.6227L-4.37599 11.6434C-4.20722 11.4746 -4.08876 11.2623 -4.0339 11.03C-3.97903 10.7977 -3.98993 10.5548 -4.06538 10.3284L-5.10098 7.22219L10.5637 -8.44252L12.7181 -6.28819C13.2718 -5.73445 14.2199 -6.02132 14.3737 -6.78943L15.9811 -14.8262C16.1168 -15.5124 15.5118 -16.1174 14.8255 -15.9805Z" fill="#F4F4F4"/>
<path d="M243.111 1.93916L245.94 -0.888909L240.278 -6.55006C242.015 -7.49504 243.968 -8.00003 246 -8.00003C248.001 -8.00003 249.928 -7.51316 251.645 -6.59568L254.558 -9.50875C252.021 -11.1231 249.081 -12 246 -12C242.888 -12 239.919 -11.1081 237.365 -9.46313L237.121 -9.70687C236.73 -10.0975 236.097 -10.0975 235.707 -9.70687L234.293 -8.29315C233.902 -7.90253 233.902 -7.26942 234.293 -6.8788L243.111 1.93916ZM259.508 -4.60072L256.595 -1.68764C257.513 0.0291989 257.999 1.95604 257.999 3.95788C257.999 5.98971 257.494 7.94343 256.549 9.67965L250.888 4.0185L248.06 6.8472L256.919 15.707C257.31 16.0977 257.943 16.0977 258.334 15.707L259.748 14.2927C260.139 13.9021 260.139 13.269 259.748 12.8783L259.463 12.5927C261.108 10.039 261.999 7.06907 261.999 3.95788C261.999 0.877308 261.122 -2.06389 259.508 -4.60072ZM264.826 -15.9805L256.789 -14.373C256.021 -14.2193 255.734 -13.2718 256.288 -12.7174L258.442 -10.5631L242.777 5.10098L239.671 4.06537C239.445 3.98999 239.202 3.97905 238.97 4.0338C238.737 4.08854 238.525 4.20681 238.356 4.37537L234.377 8.3553C233.702 9.03028 233.973 10.1803 234.879 10.4828L238.358 11.6421L239.517 15.1202C239.819 16.0264 240.969 16.2977 241.645 15.6227L245.624 11.6434C245.793 11.4746 245.911 11.2623 245.966 11.03C246.021 10.7977 246.01 10.5548 245.935 10.3284L244.899 7.22219L260.564 -8.44252L262.718 -6.28819C263.272 -5.73445 264.22 -6.02132 264.374 -6.78943L265.981 -14.8262C266.117 -15.5124 265.512 -16.1174 264.826 -15.9805Z" fill="#F4F4F4"/>
<path d="M41 74.7143C41 75.9764 42.0236 77 43.2857 77H47.8571V63.2857H41V74.7143ZM41 51.8571V61H47.8571V45C44.07 45 41 48.07 41 51.8571ZM66.1429 66.7143C66.1429 67.3457 65.6314 67.8571 65 67.8571H58.1429C57.5114 67.8571 57 67.3457 57 66.7143V63.2857H50.1429V77H73V63.2857H66.1429V66.7143ZM75.2857 77H79.8571C81.1193 77 82.1429 75.9764 82.1429 74.7143V63.2857H75.2857V77ZM50.1429 61H57V57.5714C57 56.94 57.5114 56.4286 58.1429 56.4286H65C65.6314 56.4286 66.1429 56.94 66.1429 57.5714V61H73V45H50.1429V61ZM75.2857 45V61H82.1429V51.8571C82.1429 48.07 79.0729 45 75.2857 45ZM62.7143 64.4286V59.8571C62.7143 59.2257 62.2029 58.7143 61.5714 58.7143C60.94 58.7143 60.4286 59.2257 60.4286 59.8571V64.4286C60.4286 65.06 60.94 65.5714 61.5714 65.5714C62.2029 65.5714 62.7143 65.06 62.7143 64.4286Z" fill="#F4F4F4"/>
</g>
<g opacity="0.05">
<path d="M133 186.029C132.786 184.099 131.95 182.384 130.717 181.147C130.429 180.858 129.97 181.018 129.871 181.427C129.495 182.979 128.395 184.185 127 184.59V189.41C128.395 189.815 129.495 191.021 129.871 192.573C129.97 192.982 130.429 193.142 130.717 192.853C131.95 191.616 132.786 189.902 133 187.971L131.039 187L133 186.029ZM120.156 181.427C120.058 181.018 119.604 180.858 119.319 181.147C117.896 182.589 117 184.676 117 187C117 189.324 117.896 191.412 119.319 192.853C119.604 193.142 120.058 192.982 120.156 192.573C120.529 191.021 121.618 189.815 123 189.41V184.59C121.618 184.185 120.529 182.979 120.156 181.427V181.427ZM125.5 183H124.5C124.224 183 124 183.224 124 183.5V196.5C124 196.776 124.224 197 124.5 197H125.5C125.776 197 126 196.776 126 196.5V183.5C126 183.224 125.776 183 125.5 183Z" fill="#F4F4F4"/>
<path d="M184.561 126.647C184.514 126.6 184.459 126.563 184.398 126.538C184.338 126.513 184.273 126.5 184.207 126.5C184.141 126.5 184.076 126.513 184.016 126.538C183.955 126.563 183.9 126.6 183.853 126.647L183.146 127.353C183.1 127.4 183.063 127.455 183.038 127.516C183.013 127.576 183 127.641 183 127.707C183 127.773 183.013 127.838 183.038 127.898C183.063 127.959 183.1 128.014 183.146 128.061L183.232 128.147L180.646 130.732C180.6 130.779 180.563 130.834 180.538 130.894C180.513 130.955 180.5 131.02 180.5 131.086C180.5 131.152 180.513 131.217 180.538 131.277C180.563 131.338 180.6 131.393 180.646 131.439L182.062 132.854C182.109 132.9 182.164 132.937 182.225 132.962C182.285 132.987 182.35 133 182.416 133C182.482 133 182.547 132.987 182.607 132.962C182.668 132.937 182.723 132.9 182.77 132.854L185.356 130.268L185.441 130.353C185.488 130.4 185.543 130.436 185.603 130.462C185.664 130.487 185.729 130.5 185.795 130.5C185.86 130.5 185.925 130.487 185.986 130.462C186.047 130.436 186.102 130.4 186.148 130.353L186.855 129.646C186.902 129.6 186.939 129.545 186.964 129.484C186.989 129.423 187.002 129.358 187.002 129.293C187.002 129.227 186.989 129.162 186.964 129.101C186.939 129.041 186.902 128.986 186.855 128.939L184.561 126.647ZM190.5 117C187.5 117 185.305 119.166 184.746 121.733C184.317 123.706 185.081 125.753 186.509 127.181L187.5 128.121L188.607 127.014C187.403 125.008 187.861 122.287 190.072 120.889C191.418 120.038 193.184 119.986 194.573 120.764C195.153 121.085 195.658 121.526 196.052 122.058C196.211 122.274 196.546 122.119 196.494 121.856C196.162 120.148 194.5 117 190.5 117Z" fill="#F4F4F4"/>
<path d="M66.0001 121H62.5001V117.5C62.5001 117.224 62.2763 117 62.0001 117H61.0001C60.7238 117 60.5001 117.224 60.5001 117.5V121H57C56.1716 121 55.5 121.672 55.5 122.5C55.5 123.328 56.1716 124 57 124C57.6522 124 58.2016 123.581 58.4082 123H64.592C64.7985 123.581 65.3479 124 66.0001 124C66.8286 124 67.5001 123.328 67.5001 122.5C67.5001 121.672 66.8286 121 66.0001 121ZM59.5 130.401L61.0841 132.777C61.2819 133.074 61.7182 133.074 61.9163 132.777L63.5001 130.401V124H59.5V130.401V130.401Z" fill="#F4F4F4"/>
<path d="M122.833 62.2527L117.646 67.4392C117.451 67.6345 117.451 67.951 117.646 68.1463L118.354 68.8535C118.549 69.0488 118.866 69.0488 119.061 68.8535L124.247 63.667C123.686 63.2949 123.205 62.814 122.833 62.2527V62.2527ZM133.155 59.0927L130.812 58.3499C130.418 57.0459 129.387 56.0315 128.072 55.664L127.283 53.3375C127.129 52.8843 126.737 52.8884 126.593 53.3443L125.85 55.6881C124.546 56.0818 123.531 57.1127 123.164 58.4277L120.837 59.2171C120.384 59.3708 120.388 59.7627 120.844 59.9071L123.188 60.6499C123.581 61.9539 124.612 62.9683 125.927 63.3361L126.717 65.6623C126.87 66.1154 127.262 66.1114 127.407 65.6554L128.149 63.312C129.454 62.9183 130.468 61.8874 130.835 60.5724L133.162 59.783C133.615 59.6289 133.611 59.2371 133.155 59.0927V59.0927ZM127 60.4999C126.448 60.4999 126 60.0521 126 59.4999C126 58.9477 126.448 58.4999 127 58.4999C127.552 58.4999 128 58.9477 128 59.4999C128 60.0521 127.552 60.4999 127 60.4999Z" fill="#F4F4F4"/>
<path d="M56 247L56.8332 245.333L58.5 244.5L56.8332 243.667L56 242L55.1669 243.667L53.5 244.5L55.1669 245.333L56 247ZM60.5 245L61 244L62 243.5L61 243L60.5 242L60 243L59 243.5L60 244L60.5 245ZM67.8331 252.667L67 251L66.1669 252.667L64.5 253.5L66.1669 254.333L67 256L67.8331 254.333L69.5 253.5L67.8331 252.667V252.667ZM66 248C66.2763 248 66.5 247.776 66.5 247.5V246.626L69.3709 243.444C69.5497 243.247 69.5422 242.943 69.3538 242.755L68.745 242.147C68.5566 241.958 68.2534 241.951 68.0559 242.129L59.3313 250H58C57.7238 250 57.5 250.224 57.5 250.5V251.652L53.8291 254.964C53.405 255.347 53.3885 256.008 53.7929 256.412L55.0875 257.707C55.4919 258.112 56.1525 258.095 56.5363 257.671L65.2606 248H66Z" fill="#F4F4F4"/>
<path d="M56 -3.00001L56.8332 -4.66657L58.5 -5.50001L56.8332 -6.33344L56 -8L55.1669 -6.33313L53.5 -5.50001L55.1669 -4.66657L56 -3.00001ZM60.5 -5.00001L61 -6.00001L62 -6.5L61 -7L60.5 -8L60 -7L59 -6.5L60 -6.00001L60.5 -5.00001ZM67.8331 2.66653L67 0.999976L66.1669 2.66653L64.5 3.49997L66.1669 4.33341L67 5.99996L67.8331 4.33341L69.5 3.49997L67.8331 2.66653V2.66653ZM66 -2.00002C66.2763 -2.00002 66.5 -2.22377 66.5 -2.50001V-3.37376L69.3709 -6.55594C69.5497 -6.75344 69.5422 -7.05656 69.3538 -7.245L68.745 -7.85344C68.5566 -8.04187 68.2534 -8.04937 68.0559 -7.87063L59.3313 -2.09808e-05H58C57.7238 -2.09808e-05 57.5 0.223728 57.5 0.499978V1.65216L53.8291 4.96372C53.405 5.34746 53.3885 6.00809 53.7929 6.41246L55.0875 7.70715C55.4919 8.11152 56.1525 8.09496 56.5363 7.6709L65.2606 -2.00002H66Z" fill="#F4F4F4"/>
<path d="M194 242H191.618C190.671 242 189.805 242.535 189.382 243.382L188.882 244.382C188.758 244.629 188.858 244.929 189.105 245.053L190.894 245.947C191.141 246.071 191.442 245.971 191.565 245.723L191.927 245H193.5V247.369L188.585 248.773C187.686 249.03 186.867 249.512 186.206 250.173L185.379 251H184C183.724 251 183.5 251.224 183.5 251.5V252.879L180.72 255.659C180.427 255.952 180.427 256.427 180.72 256.72L181.78 257.78C182.073 258.073 182.548 258.073 182.841 257.78L188.327 252.294C188.627 251.994 189 251.775 189.408 251.658L192.059 250.9L193.067 251.482C193.306 251.62 193.612 251.538 193.75 251.299L194.36 250.243L194.687 250.149C195.76 249.843 196.5 248.862 196.5 247.746V244.5C196.5 243.119 195.381 242 194 242Z" fill="#F4F4F4"/>
<path d="M194 -8H191.618C190.671 -8 189.805 -7.465 189.382 -6.61812L188.882 -5.61811C188.758 -5.37124 188.858 -5.07092 189.105 -4.94749L190.894 -4.05279C191.141 -3.92936 191.442 -4.02936 191.565 -4.27654L191.927 -4.99999H193.5V-2.63122L188.585 -1.22684C187.686 -0.969931 186.867 -0.488333 186.206 0.17254L185.379 1.00004H184C183.724 1.00004 183.5 1.2238 183.5 1.50005V2.8788L180.72 5.65944C180.427 5.95226 180.427 6.42726 180.72 6.72007L181.78 7.78039C182.073 8.0732 182.548 8.0732 182.841 7.78039L188.327 2.29443C188.627 1.9938 189 1.77473 189.408 1.65786L192.059 0.900356L193.067 1.48223C193.306 1.62036 193.612 1.53817 193.75 1.29911L194.36 0.242852L194.687 0.149415C195.76 -0.157149 196.5 -1.1384 196.5 -2.25435V-5.49999C196.5 -6.88062 195.381 -8 194 -8Z" fill="#F4F4F4"/>
<path d="M0.166667 53C-5.91417 53 -10.5 55.5796 -10.5 59V63.0888C-10.5 66.3533 -5.72417 69 0.166667 69C6.0575 69 10.8333 66.3533 10.8333 63.0888V59C10.8333 55.5796 6.2475 53 0.166667 53ZM0.166667 55.6667C4.585 55.6667 8.16667 57.1592 8.16667 59C8.16667 59.3858 8.00125 59.755 7.71208 60.0996C5.83958 59.0088 3.17625 58.3333 0.166667 58.3333C-2.84292 58.3333 -5.50625 59.0088 -7.37875 60.0996C-7.66792 59.755 -7.83333 59.3858 -7.83333 59C-7.83333 57.1592 -4.25167 55.6667 0.166667 55.6667ZM-5.48208 61.36C-4.04 60.7471 -2.09833 60.3333 0.166667 60.3333C2.43167 60.3333 4.37333 60.7471 5.81542 61.36C4.36833 61.9613 2.37208 62.3333 0.166667 62.3333C-2.03875 62.3333 -4.035 61.9613 -5.48208 61.36Z" fill="#F4F4F4"/>
<path d="M250.167 53C244.086 53 239.5 55.5796 239.5 59V63.0888C239.5 66.3533 244.276 69 250.167 69C256.058 69 260.833 66.3533 260.833 63.0888V59C260.833 55.5796 256.248 53 250.167 53ZM250.167 55.6667C254.585 55.6667 258.167 57.1592 258.167 59C258.167 59.3858 258.001 59.755 257.712 60.0996C255.84 59.0088 253.176 58.3333 250.167 58.3333C247.157 58.3333 244.494 59.0088 242.621 60.0996C242.332 59.755 242.167 59.3858 242.167 59C242.167 57.1592 245.748 55.6667 250.167 55.6667ZM244.518 61.36C245.96 60.7471 247.902 60.3333 250.167 60.3333C252.432 60.3333 254.373 60.7471 255.815 61.36C254.368 61.9613 252.372 62.3333 250.167 62.3333C247.961 62.3333 245.965 61.9613 244.518 61.36Z" fill="#F4F4F4"/>
<path d="M6.49844 192.146C6.46281 193.761 5.8375 195.23 4.83 196.348C4.45219 196.767 3.9075 197 3.34313 197H-3.34562C-3.90125 197 -4.44094 196.777 -4.81438 196.366C-5.86156 195.212 -6.5 193.681 -6.5 192C-6.5 189.496 -5.07469 187.339 -3 186.254V184H-1V187.464C-1.63156 187.795 -4.13531 188.675 -4.46406 191.482C-2.40625 190.453 -0.475313 190.512 1.21719 191.358C2.62312 192.062 3.75844 192 4.49375 192C4.48531 189.13 2.13969 188.091 1.00031 187.478V184H3.00031V186.283C5.09969 187.412 6.55344 189.648 6.49844 192.146ZM-3.5 183H3.5C3.77625 183 4 182.776 4 182.5V181.5C4 181.224 3.77625 181 3.5 181H-3.5C-3.77625 181 -4 181.224 -4 181.5V182.5C-4 182.776 -3.77625 183 -3.5 183Z" fill="#F4F4F4"/>
<path d="M256.498 192.146C256.463 193.761 255.837 195.23 254.83 196.348C254.452 196.767 253.907 197 253.343 197H246.654C246.099 197 245.559 196.777 245.186 196.366C244.138 195.212 243.5 193.681 243.5 192C243.5 189.496 244.925 187.339 247 186.254V184H249V187.464C248.368 187.795 245.865 188.675 245.536 191.482C247.594 190.453 249.525 190.512 251.217 191.358C252.623 192.062 253.758 192 254.494 192C254.485 189.13 252.14 188.091 251 187.478V184H253V186.283C255.1 187.412 256.553 189.648 256.498 192.146ZM246.5 183H253.5C253.776 183 254 182.776 254 182.5V181.5C254 181.224 253.776 181 253.5 181H246.5C246.224 181 246 181.224 246 181.5V182.5C246 182.776 246.224 183 246.5 183Z" fill="#F4F4F4"/>
</g>
</g>
<defs>
<clipPath id="clip0">
<rect width="250" height="250" fill="white"/>
</clipPath>
</defs>
</svg>
